<svg height="480pt" viewBox="0 0 480 480" width="480pt" xmlns="http://www.w3.org/2000/svg"><path d="m432 240c0 106.039062-85.960938 192-192 192s-192-85.960938-192-192 85.960938-192 192-192 192 85.960938 192 192zm0 0" fill="#cfd2fc"/><path d="m240 480c-132.546875 0-240-107.453125-240-240s107.453125-240 240-240 240 107.453125 240 240c-.148438 132.484375-107.515625 239.851562-240 240zm0-464c-123.710938 0-224 100.289062-224 224s100.289062 224 224 224 224-100.289062 224-224c-.140625-123.652344-100.347656-223.859375-224-224zm0 0" fill="#8690fa"/><path d="m240 104c-30.914062.035156-55.964844 25.085938-56 56v32c0 4.417969 3.582031 8 8 8h8v-40c0-22.089844 17.910156-40 40-40s40 17.910156 40 40v40h8c4.417969 0 8-3.582031 8-8v-32c-.035156-30.914062-25.085938-55.964844-56-56zm0 0" fill="#8690fa"/><path d="m152 192h176v144h-176zm0 0" fill="#5153ff"/></svg>